%FSLAX25Y25*%
%MOIN*%
G70*
G01*
G75*
G04 Layer_Color=65535*
%ADD10R,0.18000X0.06000*%
%ADD11C,0.03000*%
%ADD12R,0.20000X0.12000*%
%ADD13C,0.00800*%
D13*
X13499Y15999D02*
X13000Y16499D01*
X12000D01*
X11500Y15999D01*
Y14000D01*
X12000Y13500D01*
X13000D01*
X13499Y14000D01*
X14999Y15499D02*
X15999D01*
X16498Y14999D01*
Y13500D01*
X14999D01*
X14499Y14000D01*
X14999Y14500D01*
X16498D01*
X17498Y16499D02*
Y13500D01*
X18998D01*
X19497Y14000D01*
Y14500D01*
Y14999D01*
X18998Y15499D01*
X17498D01*
X20497Y13500D02*
X21497D01*
X20997D01*
Y16499D01*
X20497D01*
X24496Y13500D02*
X23496D01*
X22996Y14000D01*
Y14999D01*
X23496Y15499D01*
X24496D01*
X24996Y14999D01*
Y14500D01*
X22996D01*
X27995Y13500D02*
X25995D01*
X27995Y15499D01*
Y15999D01*
X27495Y16499D01*
X26495D01*
X25995Y15999D01*
X30994D02*
X30494Y16499D01*
X29494D01*
X28994Y15999D01*
Y15499D01*
X29494Y14999D01*
X30494D01*
X30994Y14500D01*
Y14000D01*
X30494Y13500D01*
X29494D01*
X28994Y14000D01*
X31993Y13500D02*
Y16499D01*
X32993Y15499D01*
X33993Y16499D01*
Y13500D01*
X34992D02*
Y15499D01*
X35992Y16499D01*
X36992Y15499D01*
Y13500D01*
Y14999D01*
X34992D01*
X40990Y15499D02*
X41990Y13500D01*
X42990Y15499D01*
X43990Y13500D02*
X44989D01*
X44489D01*
Y16499D01*
X43990Y15999D01*
M02*
